<svg width="493" height="370" viewBox="0 0 493 370" fill="none" xmlns="http://www.w3.org/2000/svg">
<g filter="url(#filter0_d_112_36)">
<path d="M31.008 220.056C24.352 220.056 19.456 217.816 16.32 213.336V219H7.872V159.864C7.872 158.456 7.616 157.336 7.104 156.504C6.656 155.672 5.728 154.712 4.32 153.624L9.888 148.632C12.32 149.912 13.984 151.384 14.88 153.048C15.84 154.648 16.32 156.92 16.32 159.864V179.736C19.584 175.128 24.448 172.824 30.912 172.824C34.944 172.824 38.432 173.784 41.376 175.704C44.384 177.56 46.688 180.152 48.288 183.48C49.888 186.808 50.688 190.616 50.688 194.904V197.976C50.688 202.264 49.888 206.072 48.288 209.4C46.752 212.728 44.48 215.352 41.472 217.272C38.528 219.128 35.04 220.056 31.008 220.056ZM28.992 213.432C33.024 213.432 36.224 211.992 38.592 209.112C41.024 206.232 42.24 202.52 42.24 197.976V194.904C42.24 190.36 41.024 186.648 38.592 183.768C36.224 180.888 33.024 179.448 28.992 179.448C22.464 179.448 18.24 182.616 16.32 188.952V203.928C18.24 210.264 22.464 213.432 28.992 213.432ZM80.46 220.056C74.188 220.056 69.324 218.552 65.868 215.544C62.476 212.472 60.78 208.152 60.78 202.584V190.296C60.78 184.728 62.476 180.44 65.868 177.432C69.324 174.36 74.188 172.824 80.46 172.824C86.732 172.824 91.564 174.36 94.956 177.432C98.348 180.44 100.044 184.728 100.044 190.296V202.584C100.044 208.152 98.348 212.472 94.956 215.544C91.564 218.552 86.732 220.056 80.46 220.056ZM80.46 213.432C83.98 213.432 86.7 212.504 88.62 210.648C90.604 208.728 91.596 206.04 91.596 202.584V190.296C91.596 186.84 90.604 184.184 88.62 182.328C86.7 180.408 83.98 179.448 80.46 179.448C76.876 179.448 74.092 180.408 72.108 182.328C70.188 184.184 69.228 186.84 69.228 190.296V202.584C69.228 206.04 70.188 208.728 72.108 210.648C74.092 212.504 76.876 213.432 80.46 213.432ZM130.241 220.056C123.969 220.056 119.105 218.552 115.649 215.544C112.257 212.472 110.561 208.152 110.561 202.584V190.296C110.561 184.728 112.257 180.44 115.649 177.432C119.105 174.36 123.969 172.824 130.241 172.824C136.513 172.824 141.345 174.36 144.737 177.432C148.129 180.44 149.825 184.728 149.825 190.296V202.584C149.825 208.152 148.129 212.472 144.737 215.544C141.345 218.552 136.513 220.056 130.241 220.056ZM130.241 213.432C133.761 213.432 136.481 212.504 138.401 210.648C140.385 208.728 141.377 206.04 141.377 202.584V190.296C141.377 186.84 140.385 184.184 138.401 182.328C136.481 180.408 133.761 179.448 130.241 179.448C126.657 179.448 123.873 180.408 121.889 182.328C119.969 184.184 119.009 186.84 119.009 190.296V202.584C119.009 206.04 119.969 208.728 121.889 210.648C123.873 212.504 126.657 213.432 130.241 213.432ZM200.973 219H192.333L188.205 203.352C187.501 200.92 186.477 199.128 185.133 197.976C183.853 196.824 181.805 196.12 178.989 195.864L170.445 204.504V219H161.997V159.864C161.997 158.456 161.741 157.336 161.229 156.504C160.781 155.672 159.853 154.712 158.445 153.624L164.205 148.632C166.509 149.912 168.109 151.384 169.005 153.048C169.965 154.712 170.445 156.984 170.445 159.864V194.136L190.413 173.88H200.877L185.037 189.816C188.173 190.456 190.637 191.832 192.429 193.944C194.221 195.992 195.693 199.128 196.845 203.352L200.973 219Z" fill="white"/>
</g>
<g filter="url(#filter1_d_112_36)">
<path d="M246.625 223.25C242 223.25 237.771 222.083 233.938 219.75C230.146 217.417 227.125 214.292 224.875 210.375C222.667 206.417 221.562 202.021 221.562 197.188L221.688 157.25C221.688 152.5 222.771 148.208 224.938 144.375C227.104 140.5 230.083 137.396 233.875 135.062C237.708 132.688 241.958 131.5 246.625 131.5C251.375 131.5 255.604 132.646 259.312 134.938C263.062 137.229 266.042 140.333 268.25 144.25C270.5 148.125 271.625 152.458 271.625 157.25V163.125C271.625 163.458 271.458 163.625 271.125 163.625H256.75C256.417 163.625 256.25 163.458 256.25 163.125V157.25C256.25 154.417 255.333 151.979 253.5 149.938C251.667 147.896 249.375 146.875 246.625 146.875C243.583 146.875 241.25 147.917 239.625 150C238 152.083 237.188 154.5 237.188 157.25V197.188C237.188 200.312 238.104 202.875 239.938 204.875C241.771 206.833 244 207.812 246.625 207.812C249.375 207.812 251.667 206.729 253.5 204.562C255.333 202.354 256.25 199.896 256.25 197.188V191.25C256.25 190.917 256.417 190.75 256.75 190.75H271.25C271.583 190.75 271.75 190.917 271.75 191.25V197.188C271.75 201.979 270.625 206.354 268.375 210.312C266.083 214.229 263.062 217.375 259.312 219.75C255.562 222.083 251.333 223.25 246.625 223.25ZM307.75 222H293.062C292.771 222 292.625 221.833 292.625 221.5L292.75 185.125L275.625 133.438C275.542 133.104 275.667 132.938 276 132.938H290.25C290.667 132.938 290.917 133.104 291 133.438L300.438 167.875L310.062 133.438C310.146 133.104 310.354 132.938 310.688 132.938H325.062C325.396 132.938 325.521 133.104 325.438 133.438L308.125 184.625L308.25 221.5C308.25 221.833 308.083 222 307.75 222ZM352.125 223.25C347.5 223.25 343.271 222.083 339.438 219.75C335.646 217.417 332.625 214.292 330.375 210.375C328.167 206.417 327.062 202.021 327.062 197.188L327.188 157.25C327.188 152.5 328.271 148.208 330.438 144.375C332.604 140.5 335.583 137.396 339.375 135.062C343.208 132.688 347.458 131.5 352.125 131.5C356.875 131.5 361.104 132.646 364.812 134.938C368.562 137.229 371.542 140.333 373.75 144.25C376 148.125 377.125 152.458 377.125 157.25V163.125C377.125 163.458 376.958 163.625 376.625 163.625H362.25C361.917 163.625 361.75 163.458 361.75 163.125V157.25C361.75 154.417 360.833 151.979 359 149.938C357.167 147.896 354.875 146.875 352.125 146.875C349.083 146.875 346.75 147.917 345.125 150C343.5 152.083 342.688 154.5 342.688 157.25V197.188C342.688 200.312 343.604 202.875 345.438 204.875C347.271 206.833 349.5 207.812 352.125 207.812C354.875 207.812 357.167 206.729 359 204.562C360.833 202.354 361.75 199.896 361.75 197.188V191.25C361.75 190.917 361.917 190.75 362.25 190.75H376.75C377.083 190.75 377.25 190.917 377.25 191.25V197.188C377.25 201.979 376.125 206.354 373.875 210.312C371.583 214.229 368.562 217.375 364.812 219.75C361.062 222.083 356.833 223.25 352.125 223.25ZM428.438 222H387.062C386.729 222 386.562 221.792 386.562 221.375L386.688 133.562C386.688 133.146 386.896 132.938 387.312 132.938H401.562C401.979 132.938 402.188 133.146 402.188 133.562L402.062 206.25H428.438C428.854 206.25 429.062 206.458 429.062 206.875V221.375C429.062 221.792 428.854 222 428.438 222ZM479.312 222H437.938C437.604 222 437.438 221.792 437.438 221.375L437.562 133.438C437.562 133.104 437.729 132.938 438.062 132.938H479.188C479.521 132.938 479.688 133.146 479.688 133.562V147.875C479.688 148.208 479.521 148.375 479.188 148.375H452.938V168.375H479.188C479.521 168.375 479.688 168.542 479.688 168.875L479.812 183.375C479.812 183.708 479.646 183.875 479.312 183.875H452.938V206.25H479.312C479.646 206.25 479.812 206.458 479.812 206.875V221.5C479.812 221.833 479.646 222 479.312 222Z" fill="white"/>
</g>
<g filter="url(#filter2_d_112_36)">
<path d="M376.61 107.243C377.55 111.277 381.582 113.785 385.616 112.845C389.65 111.905 392.158 107.873 391.219 103.839L376.61 107.243ZM99.7259 109.442C101.881 112.98 106.495 114.101 110.033 111.946L167.682 76.8348C171.219 74.6802 172.341 70.0657 170.186 66.5281C168.031 62.9904 163.417 61.8693 159.879 64.0239L108.636 95.2342L77.4253 43.9905C75.2706 40.4528 70.6562 39.3317 67.1185 41.4863C63.5809 43.6409 62.4597 48.2554 64.6143 51.793L99.7259 109.442ZM391.219 103.839C374.958 34.0469 309.251 0.60655 245.307 0.855041C181.396 1.10341 115.55 35.0102 98.8434 103.77L113.419 107.312C127.964 47.45 185.802 16.0864 245.366 15.8549C304.897 15.6236 362.456 46.494 376.61 107.243L391.219 103.839Z" fill="#B529C8"/>
</g>
<g filter="url(#filter3_d_112_36)">
<path d="M113.373 258.506C112.294 254.507 108.178 252.139 104.179 253.218C100.18 254.296 97.8117 258.412 98.8901 262.412L113.373 258.506ZM390.32 256.558C388.165 253.02 383.551 251.899 380.013 254.054L322.364 289.165C318.826 291.32 317.705 295.934 319.86 299.472C322.014 303.009 326.629 304.131 330.166 301.976L381.41 270.766L412.62 322.009C414.775 325.547 419.39 326.668 422.927 324.514C426.465 322.359 427.586 317.745 425.431 314.207L390.32 256.558ZM98.8901 262.412C116.261 326.831 181.873 360.1 245.311 361.206C308.886 362.315 374.453 331.167 391.202 262.23L376.626 258.688C362.125 318.373 304.985 347.245 245.573 346.209C186.025 345.17 128.371 314.128 113.373 258.506L98.8901 262.412Z" fill="#B529C8"/>
</g>
<defs>
<filter id="filter0_d_112_36" x="0.319946" y="148.632" width="204.653" height="79.4241" filterUnits="userSpaceOnUse" color-interpolation-filters="sRGB">
<feFlood flood-opacity="0" result="BackgroundImageFix"/>
<feColorMatrix in="SourceAlpha" type="matrix" values="0 0 0 0 0 0 0 0 0 0 0 0 0 0 0 0 0 0 127 0" result="hardAlpha"/>
<feOffset dy="4"/>
<feGaussianBlur stdDeviation="2"/>
<feComposite in2="hardAlpha" operator="out"/>
<feColorMatrix type="matrix" values="0 0 0 0 0.0509804 0 0 0 0 0.0156863 0 0 0 0 0.47451 0 0 0 1 0"/>
<feBlend mode="lighten" in2="BackgroundImageFix" result="effect1_dropShadow_112_36"/>
<feBlend mode="normal" in="SourceGraphic" in2="effect1_dropShadow_112_36" result="shape"/>
</filter>
<filter id="filter1_d_112_36" x="217.562" y="131.5" width="266.25" height="99.75" filterUnits="userSpaceOnUse" color-interpolation-filters="sRGB">
<feFlood flood-opacity="0" result="BackgroundImageFix"/>
<feColorMatrix in="SourceAlpha" type="matrix" values="0 0 0 0 0 0 0 0 0 0 0 0 0 0 0 0 0 0 127 0" result="hardAlpha"/>
<feOffset dy="4"/>
<feGaussianBlur stdDeviation="2"/>
<feComposite in2="hardAlpha" operator="out"/>
<feColorMatrix type="matrix" values="0 0 0 0 0.0509804 0 0 0 0 0.0156863 0 0 0 0 0.47451 0 0 0 1 0"/>
<feBlend mode="lighten" in2="BackgroundImageFix" result="effect1_dropShadow_112_36"/>
<feBlend mode="normal" in="SourceGraphic" in2="effect1_dropShadow_112_36" result="shape"/>
</filter>
<filter id="filter2_d_112_36" x="59.5187" y="0.853638" width="335.897" height="120.189" filterUnits="userSpaceOnUse" color-interpolation-filters="sRGB">
<feFlood flood-opacity="0" result="BackgroundImageFix"/>
<feColorMatrix in="SourceAlpha" type="matrix" values="0 0 0 0 0 0 0 0 0 0 0 0 0 0 0 0 0 0 127 0" result="hardAlpha"/>
<feOffset dy="4"/>
<feGaussianBlur stdDeviation="2"/>
<feComposite in2="hardAlpha" operator="out"/>
<feColorMatrix type="matrix" values="0 0 0 0 0 0 0 0 0 0 0 0 0 0 0 0 0 0 0.25 0"/>
<feBlend mode="normal" in2="BackgroundImageFix" result="effect1_dropShadow_112_36"/>
<feBlend mode="normal" in="SourceGraphic" in2="effect1_dropShadow_112_36" result="shape"/>
</filter>
<filter id="filter3_d_112_36" x="94.6296" y="252.957" width="335.897" height="116.278" filterUnits="userSpaceOnUse" color-interpolation-filters="sRGB">
<feFlood flood-opacity="0" result="BackgroundImageFix"/>
<feColorMatrix in="SourceAlpha" type="matrix" values="0 0 0 0 0 0 0 0 0 0 0 0 0 0 0 0 0 0 127 0" result="hardAlpha"/>
<feOffset dy="4"/>
<feGaussianBlur stdDeviation="2"/>
<feComposite in2="hardAlpha" operator="out"/>
<feColorMatrix type="matrix" values="0 0 0 0 0 0 0 0 0 0 0 0 0 0 0 0 0 0 0.25 0"/>
<feBlend mode="normal" in2="BackgroundImageFix" result="effect1_dropShadow_112_36"/>
<feBlend mode="normal" in="SourceGraphic" in2="effect1_dropShadow_112_36" result="shape"/>
</filter>
</defs>
</svg>
