<svg width="493" height="370" viewBox="0 0 493 370" fill="none" xmlns="http://www.w3.org/2000/svg">
<g filter="url(#filter0_d_15_16)">
<path d="M31.008 218.056C24.352 218.056 19.456 215.816 16.32 211.336V217H7.872V157.864C7.872 156.456 7.616 155.336 7.104 154.504C6.656 153.672 5.728 152.712 4.32 151.624L9.888 146.632C12.32 147.912 13.984 149.384 14.88 151.048C15.84 152.648 16.32 154.92 16.32 157.864V177.736C19.584 173.128 24.448 170.824 30.912 170.824C34.944 170.824 38.432 171.784 41.376 173.704C44.384 175.56 46.688 178.152 48.288 181.48C49.888 184.808 50.688 188.616 50.688 192.904V195.976C50.688 200.264 49.888 204.072 48.288 207.4C46.752 210.728 44.48 213.352 41.472 215.272C38.528 217.128 35.04 218.056 31.008 218.056ZM28.992 211.432C33.024 211.432 36.224 209.992 38.592 207.112C41.024 204.232 42.24 200.52 42.24 195.976V192.904C42.24 188.36 41.024 184.648 38.592 181.768C36.224 178.888 33.024 177.448 28.992 177.448C22.464 177.448 18.24 180.616 16.32 186.952V201.928C18.24 208.264 22.464 211.432 28.992 211.432ZM80.46 218.056C74.188 218.056 69.324 216.552 65.868 213.544C62.476 210.472 60.78 206.152 60.78 200.584V188.296C60.78 182.728 62.476 178.44 65.868 175.432C69.324 172.36 74.188 170.824 80.46 170.824C86.732 170.824 91.564 172.36 94.956 175.432C98.348 178.44 100.044 182.728 100.044 188.296V200.584C100.044 206.152 98.348 210.472 94.956 213.544C91.564 216.552 86.732 218.056 80.46 218.056ZM80.46 211.432C83.98 211.432 86.7 210.504 88.62 208.648C90.604 206.728 91.596 204.04 91.596 200.584V188.296C91.596 184.84 90.604 182.184 88.62 180.328C86.7 178.408 83.98 177.448 80.46 177.448C76.876 177.448 74.092 178.408 72.108 180.328C70.188 182.184 69.228 184.84 69.228 188.296V200.584C69.228 204.04 70.188 206.728 72.108 208.648C74.092 210.504 76.876 211.432 80.46 211.432ZM130.241 218.056C123.969 218.056 119.105 216.552 115.649 213.544C112.257 210.472 110.561 206.152 110.561 200.584V188.296C110.561 182.728 112.257 178.44 115.649 175.432C119.105 172.36 123.969 170.824 130.241 170.824C136.513 170.824 141.345 172.36 144.737 175.432C148.129 178.44 149.825 182.728 149.825 188.296V200.584C149.825 206.152 148.129 210.472 144.737 213.544C141.345 216.552 136.513 218.056 130.241 218.056ZM130.241 211.432C133.761 211.432 136.481 210.504 138.401 208.648C140.385 206.728 141.377 204.04 141.377 200.584V188.296C141.377 184.84 140.385 182.184 138.401 180.328C136.481 178.408 133.761 177.448 130.241 177.448C126.657 177.448 123.873 178.408 121.889 180.328C119.969 182.184 119.009 184.84 119.009 188.296V200.584C119.009 204.04 119.969 206.728 121.889 208.648C123.873 210.504 126.657 211.432 130.241 211.432ZM200.973 217H192.333L188.205 201.352C187.501 198.92 186.477 197.128 185.133 195.976C183.853 194.824 181.805 194.12 178.989 193.864L170.445 202.504V217H161.997V157.864C161.997 156.456 161.741 155.336 161.229 154.504C160.781 153.672 159.853 152.712 158.445 151.624L164.205 146.632C166.509 147.912 168.109 149.384 169.005 151.048C169.965 152.712 170.445 154.984 170.445 157.864V192.136L190.413 171.88H200.877L185.037 187.816C188.173 188.456 190.637 189.832 192.429 191.944C194.221 193.992 195.693 197.128 196.845 201.352L200.973 217Z" fill="white"/>
</g>
<g filter="url(#filter1_d_15_16)">
<path d="M246.625 221.25C242 221.25 237.771 220.083 233.938 217.75C230.146 215.417 227.125 212.292 224.875 208.375C222.667 204.417 221.562 200.021 221.562 195.188L221.688 155.25C221.688 150.5 222.771 146.208 224.938 142.375C227.104 138.5 230.083 135.396 233.875 133.062C237.708 130.688 241.958 129.5 246.625 129.5C251.375 129.5 255.604 130.646 259.312 132.938C263.062 135.229 266.042 138.333 268.25 142.25C270.5 146.125 271.625 150.458 271.625 155.25V161.125C271.625 161.458 271.458 161.625 271.125 161.625H256.75C256.417 161.625 256.25 161.458 256.25 161.125V155.25C256.25 152.417 255.333 149.979 253.5 147.938C251.667 145.896 249.375 144.875 246.625 144.875C243.583 144.875 241.25 145.917 239.625 148C238 150.083 237.188 152.5 237.188 155.25V195.188C237.188 198.312 238.104 200.875 239.938 202.875C241.771 204.833 244 205.812 246.625 205.812C249.375 205.812 251.667 204.729 253.5 202.562C255.333 200.354 256.25 197.896 256.25 195.188V189.25C256.25 188.917 256.417 188.75 256.75 188.75H271.25C271.583 188.75 271.75 188.917 271.75 189.25V195.188C271.75 199.979 270.625 204.354 268.375 208.312C266.083 212.229 263.062 215.375 259.312 217.75C255.562 220.083 251.333 221.25 246.625 221.25ZM307.75 220H293.062C292.771 220 292.625 219.833 292.625 219.5L292.75 183.125L275.625 131.438C275.542 131.104 275.667 130.938 276 130.938H290.25C290.667 130.938 290.917 131.104 291 131.438L300.438 165.875L310.062 131.438C310.146 131.104 310.354 130.938 310.688 130.938H325.062C325.396 130.938 325.521 131.104 325.438 131.438L308.125 182.625L308.25 219.5C308.25 219.833 308.083 220 307.75 220ZM352.125 221.25C347.5 221.25 343.271 220.083 339.438 217.75C335.646 215.417 332.625 212.292 330.375 208.375C328.167 204.417 327.062 200.021 327.062 195.188L327.188 155.25C327.188 150.5 328.271 146.208 330.438 142.375C332.604 138.5 335.583 135.396 339.375 133.062C343.208 130.688 347.458 129.5 352.125 129.5C356.875 129.5 361.104 130.646 364.812 132.938C368.562 135.229 371.542 138.333 373.75 142.25C376 146.125 377.125 150.458 377.125 155.25V161.125C377.125 161.458 376.958 161.625 376.625 161.625H362.25C361.917 161.625 361.75 161.458 361.75 161.125V155.25C361.75 152.417 360.833 149.979 359 147.938C357.167 145.896 354.875 144.875 352.125 144.875C349.083 144.875 346.75 145.917 345.125 148C343.5 150.083 342.688 152.5 342.688 155.25V195.188C342.688 198.312 343.604 200.875 345.438 202.875C347.271 204.833 349.5 205.812 352.125 205.812C354.875 205.812 357.167 204.729 359 202.562C360.833 200.354 361.75 197.896 361.75 195.188V189.25C361.75 188.917 361.917 188.75 362.25 188.75H376.75C377.083 188.75 377.25 188.917 377.25 189.25V195.188C377.25 199.979 376.125 204.354 373.875 208.312C371.583 212.229 368.562 215.375 364.812 217.75C361.062 220.083 356.833 221.25 352.125 221.25ZM428.438 220H387.062C386.729 220 386.562 219.792 386.562 219.375L386.688 131.562C386.688 131.146 386.896 130.938 387.312 130.938H401.562C401.979 130.938 402.188 131.146 402.188 131.562L402.062 204.25H428.438C428.854 204.25 429.062 204.458 429.062 204.875V219.375C429.062 219.792 428.854 220 428.438 220ZM479.312 220H437.938C437.604 220 437.438 219.792 437.438 219.375L437.562 131.438C437.562 131.104 437.729 130.938 438.062 130.938H479.188C479.521 130.938 479.688 131.146 479.688 131.562V145.875C479.688 146.208 479.521 146.375 479.188 146.375H452.938V166.375H479.188C479.521 166.375 479.688 166.542 479.688 166.875L479.812 181.375C479.812 181.708 479.646 181.875 479.312 181.875H452.938V204.25H479.312C479.646 204.25 479.812 204.458 479.812 204.875V219.5C479.812 219.833 479.646 220 479.312 220Z" fill="white"/>
</g>
<g filter="url(#filter2_d_15_16)">
<path d="M378.014 104.632C378.617 107.89 381.746 110.043 385.005 109.441C388.263 108.839 390.417 105.709 389.814 102.45L378.014 104.632ZM101.007 106.662C102.731 109.492 106.422 110.389 109.252 108.665L155.372 80.5761C158.202 78.8524 159.099 75.1608 157.375 72.3307C155.651 69.5006 151.96 68.6037 149.13 70.3274L108.135 95.2956L83.1665 54.3006C81.4428 51.4705 77.7512 50.5736 74.9211 52.2973C72.091 54.0209 71.194 57.7125 72.9177 60.5427L101.007 106.662ZM389.814 102.45C376.937 32.7913 311.767 -0.363803 247.593 0.00304194C183.44 0.369764 116.805 34.1954 100.301 102.124L111.962 104.958C126.708 44.265 186.812 12.3507 247.661 12.0028C308.489 11.6551 366.586 42.8108 378.014 104.632L389.814 102.45Z" fill="#1ED546"/>
</g>
<g filter="url(#filter3_d_15_16)">
<path d="M112.031 257.368C111.429 254.11 108.299 251.957 105.041 252.559C101.782 253.161 99.629 256.291 100.231 259.55L112.031 257.368ZM389.039 255.338C387.315 252.508 383.623 251.611 380.793 253.335L334.674 281.424C331.844 283.148 330.947 286.839 332.671 289.669C334.394 292.499 338.086 293.396 340.916 291.673L381.911 266.704L406.879 307.699C408.603 310.53 412.294 311.426 415.125 309.703C417.955 307.979 418.852 304.287 417.128 301.457L389.039 255.338ZM100.231 259.55C113.109 329.209 178.279 362.364 242.453 361.997C306.605 361.63 373.24 327.805 389.745 259.876L378.084 257.042C363.338 317.735 303.234 349.649 242.384 349.997C181.556 350.345 123.46 319.189 112.031 257.368L100.231 259.55Z" fill="#1ED546"/>
</g>
<defs>
<filter id="filter0_d_15_16" x="0.320007" y="146.632" width="204.653" height="79.4241" filterUnits="userSpaceOnUse" color-interpolation-filters="sRGB">
<feFlood flood-opacity="0" result="BackgroundImageFix"/>
<feColorMatrix in="SourceAlpha" type="matrix" values="0 0 0 0 0 0 0 0 0 0 0 0 0 0 0 0 0 0 127 0" result="hardAlpha"/>
<feOffset dy="4"/>
<feGaussianBlur stdDeviation="2"/>
<feComposite in2="hardAlpha" operator="out"/>
<feColorMatrix type="matrix" values="0 0 0 0 0.0509804 0 0 0 0 0.0156863 0 0 0 0 0.47451 0 0 0 1 0"/>
<feBlend mode="lighten" in2="BackgroundImageFix" result="effect1_dropShadow_15_16"/>
<feBlend mode="normal" in="SourceGraphic" in2="effect1_dropShadow_15_16" result="shape"/>
</filter>
<filter id="filter1_d_15_16" x="217.562" y="129.5" width="266.25" height="99.75" filterUnits="userSpaceOnUse" color-interpolation-filters="sRGB">
<feFlood flood-opacity="0" result="BackgroundImageFix"/>
<feColorMatrix in="SourceAlpha" type="matrix" values="0 0 0 0 0 0 0 0 0 0 0 0 0 0 0 0 0 0 127 0" result="hardAlpha"/>
<feOffset dy="4"/>
<feGaussianBlur stdDeviation="2"/>
<feComposite in2="hardAlpha" operator="out"/>
<feColorMatrix type="matrix" values="0 0 0 0 0.0509804 0 0 0 0 0.0156863 0 0 0 0 0.47451 0 0 0 1 0"/>
<feBlend mode="lighten" in2="BackgroundImageFix" result="effect1_dropShadow_15_16"/>
<feBlend mode="normal" in="SourceGraphic" in2="effect1_dropShadow_15_16" result="shape"/>
</filter>
<filter id="filter2_d_15_16" x="68.0413" y="0" width="325.874" height="117.542" filterUnits="userSpaceOnUse" color-interpolation-filters="sRGB">
<feFlood flood-opacity="0" result="BackgroundImageFix"/>
<feColorMatrix in="SourceAlpha" type="matrix" values="0 0 0 0 0 0 0 0 0 0 0 0 0 0 0 0 0 0 127 0" result="hardAlpha"/>
<feOffset dy="4"/>
<feGaussianBlur stdDeviation="2"/>
<feComposite in2="hardAlpha" operator="out"/>
<feColorMatrix type="matrix" values="0 0 0 0 0 0 0 0 0 0 0 0 0 0 0 0 0 0 0.25 0"/>
<feBlend mode="normal" in2="BackgroundImageFix" result="effect1_dropShadow_15_16"/>
<feBlend mode="normal" in="SourceGraphic" in2="effect1_dropShadow_15_16" result="shape"/>
</filter>
<filter id="filter3_d_15_16" x="96.1304" y="252.458" width="325.874" height="117.542" filterUnits="userSpaceOnUse" color-interpolation-filters="sRGB">
<feFlood flood-opacity="0" result="BackgroundImageFix"/>
<feColorMatrix in="SourceAlpha" type="matrix" values="0 0 0 0 0 0 0 0 0 0 0 0 0 0 0 0 0 0 127 0" result="hardAlpha"/>
<feOffset dy="4"/>
<feGaussianBlur stdDeviation="2"/>
<feComposite in2="hardAlpha" operator="out"/>
<feColorMatrix type="matrix" values="0 0 0 0 0 0 0 0 0 0 0 0 0 0 0 0 0 0 0.25 0"/>
<feBlend mode="normal" in2="BackgroundImageFix" result="effect1_dropShadow_15_16"/>
<feBlend mode="normal" in="SourceGraphic" in2="effect1_dropShadow_15_16" result="shape"/>
</filter>
</defs>
</svg>
