<svg width="165" height="112" viewBox="0 0 165 112" fill="none" xmlns="http://www.w3.org/2000/svg">
<path d="M121.849 40.6626C122.269 41.022 122.9 40.9734 123.259 40.5541C123.619 40.1348 123.57 39.5035 123.151 39.1441L121.849 40.6626ZM83.9964 55.4881C84.9735 44.0072 90.3103 36.7913 97.2912 34.1515C104.291 31.5044 113.289 33.3258 121.849 40.6626L123.151 39.1441C114.211 31.4814 104.459 29.3029 96.5838 32.2808C88.6897 35.2659 83.0265 43.2998 82.0036 55.3185L83.9964 55.4881Z" fill="white"/>
<path d="M18.8955 46.2219C18.3462 46.2796 17.9478 46.7717 18.0055 47.3209C18.0632 47.8702 18.5553 48.2687 19.1045 48.2109L18.8955 46.2219ZM19.1045 48.2109C47.2341 45.2547 63.0717 47.4703 77.4259 57.5352L78.5741 55.8976C63.6247 45.4154 47.188 43.2485 18.8955 46.2219L19.1045 48.2109Z" fill="white"/>
<path d="M15.8731 49.8197C15.3253 49.8898 14.938 50.3907 15.0081 50.9385C15.0782 51.4863 15.5791 51.8736 16.1269 51.8035L15.8731 49.8197ZM16.1269 51.8035C28.6859 50.197 38.2916 49.4716 47.5031 50.4293C56.6967 51.3853 65.5498 54.0241 76.5739 59.2163L77.4261 57.4069C66.2524 52.1443 57.1797 49.4247 47.7099 48.4401C38.2579 47.4573 28.4624 48.2093 15.8731 49.8197L16.1269 51.8035Z" fill="white"/>
<path d="M3.26633 52.5142C1.89348 52.3671 0.661319 53.3608 0.514227 54.7337C0.367136 56.1065 1.36081 57.3387 2.73367 57.4858L3.26633 52.5142ZM2.73367 57.4858L72.7337 64.9858L73.2663 60.0142L3.26633 52.5142L2.73367 57.4858Z" fill="white"/>
<path d="M76 63.8553C81.0769 57.4079 83.5 57.3553 89 63.8553" stroke="white" stroke-width="5"/>
<path d="M162 55L92 62.5" stroke="white" stroke-width="5" stroke-linecap="round"/>
<path d="M149.127 49.8197C149.675 49.8898 150.062 50.3907 149.992 50.9385C149.922 51.4863 149.421 51.8736 148.873 51.8035L149.127 49.8197ZM148.873 51.8035C136.314 50.197 126.708 49.4716 117.497 50.4293C108.303 51.3853 99.4502 54.0241 88.4261 59.2163L87.5739 57.4069C98.7476 52.1443 107.82 49.4247 117.29 48.4401C126.742 47.4573 136.538 48.2093 149.127 49.8197L148.873 51.8035Z" fill="white"/>
<path d="M22.0193 48.0002C21.4672 47.9895 21.0109 48.4285 21.0002 48.9807C20.9895 49.5328 21.4285 49.9891 21.9807 49.9998L22.0193 48.0002ZM21.9807 49.9998C51.9734 50.5799 63.846 53.1934 74.8439 62.7547L76.1561 61.2453C64.5707 51.1733 52.0306 48.5807 22.0193 48.0002L21.9807 49.9998Z" fill="white"/>
<path d="M146.098 47.1399C146.647 47.1938 147.049 47.683 146.995 48.2327C146.941 48.7823 146.452 49.1842 145.902 49.1303L146.098 47.1399ZM145.902 49.1303C117.764 46.3708 101.91 48.4393 87.5475 57.8368L86.4525 56.1632C101.393 46.3873 117.814 44.3661 146.098 47.1399L145.902 49.1303Z" fill="white"/>
<path d="M138.481 42.0002C139.033 41.9895 139.489 42.4285 139.5 42.9807C139.51 43.5328 139.072 43.9891 138.519 43.9998L138.481 42.0002ZM138.519 43.9998C108.527 44.5799 96.654 47.1934 85.6561 56.7547L84.3439 55.2453C95.9293 45.1733 108.469 42.5807 138.481 42.0002L138.519 43.9998Z" fill="white"/>
<path d="M12.0007 52C11.4484 51.9996 11.0004 52.447 11 52.9993C10.9996 53.5516 11.447 53.9996 11.9993 54L12.0007 52ZM11.9993 54C44.0242 54.0224 57.1597 55.6298 74.7348 60.4642L75.2652 58.5358C57.4515 53.6358 44.1194 52.0225 12.0007 52L11.9993 54Z" fill="white"/>
<path d="M152.999 53C153.552 52.9996 154 53.4471 154 53.9994C154 54.5516 153.553 54.9996 153.001 55L152.999 53ZM153.001 55C120.972 55.0207 107.829 56.5047 90.2461 60.9692L89.7539 59.0308C107.56 54.5097 120.885 53.0207 152.999 53L153.001 55Z" fill="white"/>
<path d="M74 61C80.4033 53.0861 84.1212 52.9143 91 61" stroke="#160F69" stroke-width="1.5"/>
<g filter="url(#filter0_d_35_26)">
<path d="M49.4447 81.477C49.1558 80.1268 47.8271 79.2665 46.477 79.5553C45.1268 79.8442 44.2665 81.1729 44.5553 82.523L49.4447 81.477ZM44.5553 82.523C47.6735 97.0971 63.2266 103.571 77.7367 103.499C92.2665 103.428 108.055 96.8118 112.03 82.6767L107.216 81.3233C104.146 92.2424 91.3625 98.432 77.712 98.4995C64.0418 98.567 51.8061 92.5139 49.4447 81.477L44.5553 82.523Z" fill="#1ED546"/>
</g>
<path d="M98.0699 81.96C96.7059 82.2738 95.8093 83.6118 96.0674 84.9486C96.3255 86.2854 97.6405 87.1148 99.0045 86.8011L98.0699 81.96ZM112.768 78.5795L98.0699 81.96L99.0045 86.8011L113.703 83.4205L112.768 78.5795Z" fill="#1ED546"/>
<path d="M117.151 89.9398C117.664 91.1319 116.954 92.459 115.564 92.904C114.175 93.349 112.633 92.7435 112.12 91.5514L117.151 89.9398ZM112.12 91.5514L107.063 79.8058L112.094 78.1942L117.151 89.9398L112.12 91.5514Z" fill="#1ED546"/>
<g filter="url(#filter1_d_35_26)">
<path d="M111.555 22.523C111.844 23.8732 113.173 24.7335 114.523 24.4447C115.873 24.1558 116.734 22.8271 116.445 21.477L111.555 22.523ZM116.445 21.477C113.327 6.90292 97.7734 0.428935 83.2633 0.500604C68.7335 0.572371 52.9452 7.18821 48.9705 21.3233L53.7838 22.6767C56.8542 11.7576 69.6375 5.56797 83.288 5.50054C96.9582 5.43302 109.194 11.4861 111.555 22.523L116.445 21.477Z" fill="#1ED546"/>
</g>
<path d="M62.9301 22.04C64.2941 21.7262 65.1907 20.3882 64.9326 19.0514C64.6745 17.7146 63.3595 16.8852 61.9955 17.1989L62.9301 22.04ZM48.2316 25.4205L62.9301 22.04L61.9955 17.1989L47.297 20.5795L48.2316 25.4205Z" fill="#1ED546"/>
<path d="M43.8491 14.0602C43.3359 12.8681 44.0462 11.541 45.4355 11.096C46.8249 10.651 48.3672 11.2565 48.8804 12.4486L43.8491 14.0602ZM48.8804 12.4486L53.9373 24.1942L48.9059 25.8058L43.8491 14.0602L48.8804 12.4486Z" fill="#1ED546"/>
<defs>
<filter id="filter0_d_35_26" x="40.4995" y="79.4995" width="75.53" height="32.0005" filterUnits="userSpaceOnUse" color-interpolation-filters="sRGB">
<feFlood flood-opacity="0" result="BackgroundImageFix"/>
<feColorMatrix in="SourceAlpha" type="matrix" values="0 0 0 0 0 0 0 0 0 0 0 0 0 0 0 0 0 0 127 0" result="hardAlpha"/>
<feOffset dy="4"/>
<feGaussianBlur stdDeviation="2"/>
<feComposite in2="hardAlpha" operator="out"/>
<feColorMatrix type="matrix" values="0 0 0 0 0 0 0 0 0 0 0 0 0 0 0 0 0 0 0.25 0"/>
<feBlend mode="normal" in2="BackgroundImageFix" result="effect1_dropShadow_35_26"/>
<feBlend mode="normal" in="SourceGraphic" in2="effect1_dropShadow_35_26" result="shape"/>
</filter>
<filter id="filter1_d_35_26" x="44.9705" y="0.5" width="75.53" height="32.0005" filterUnits="userSpaceOnUse" color-interpolation-filters="sRGB">
<feFlood flood-opacity="0" result="BackgroundImageFix"/>
<feColorMatrix in="SourceAlpha" type="matrix" values="0 0 0 0 0 0 0 0 0 0 0 0 0 0 0 0 0 0 127 0" result="hardAlpha"/>
<feOffset dy="4"/>
<feGaussianBlur stdDeviation="2"/>
<feComposite in2="hardAlpha" operator="out"/>
<feColorMatrix type="matrix" values="0 0 0 0 0 0 0 0 0 0 0 0 0 0 0 0 0 0 0.25 0"/>
<feBlend mode="normal" in2="BackgroundImageFix" result="effect1_dropShadow_35_26"/>
<feBlend mode="normal" in="SourceGraphic" in2="effect1_dropShadow_35_26" result="shape"/>
</filter>
</defs>
</svg>
