<svg width="30" height="36" viewBox="0 0 30 36" fill="none" xmlns="http://www.w3.org/2000/svg">
<path d="M15 22C22.5407 22 26.4897 27.3086 28.9926 31.2761C28.939 32.2458 28.5986 32.8461 28.0978 33.2691C27.5 33.7741 26.5559 34.1258 25.2053 34.3326C23.8682 34.5373 22.256 34.5831 20.422 34.5735C19.6477 34.5695 18.8063 34.5549 17.934 34.5397C16.8148 34.5203 15.6447 34.5 14.5 34.5C13.7711 34.5 13.0645 34.5036 12.3816 34.507C9.1062 34.5235 6.37386 34.5372 4.33299 34.1431C3.11574 33.9081 2.29222 33.5507 1.7783 33.0771C1.34117 32.6743 1.04778 32.1136 1.00532 31.2277C2.20426 28.8797 3.77178 26.6107 5.94623 24.9133C8.17031 23.1771 11.0781 22 15 22Z" stroke="white" stroke-width="2"/>
<rect x="7" y="1" width="15" height="15" rx="7.5" stroke="white" stroke-width="2"/>
</svg>
